<svg width="100" height="28" viewBox="0 0 100 28" fill="none" xmlns="http://www.w3.org/2000/svg">
<path d="M5.25887 27.925C4.56584 27.925 3.89999 27.8027 3.26131 27.5581C2.62264 27.3135 2.0587 26.9466 1.56951 26.4574C1.0939 25.9546 0.713412 25.3295 0.428047 24.5821C0.142682 23.8348 0 22.9583 0 21.9527C0 20.7297 0.176654 19.6426 0.529963 18.6914C0.883272 17.7266 1.3317 16.9181 1.87525 16.2658C2.4324 15.5999 3.05069 15.0972 3.73013 14.7574C4.40957 14.4041 5.07542 14.2275 5.72768 14.2275C6.57019 14.2275 7.23604 14.506 7.72523 15.0632C8.22802 15.6203 8.47941 16.3405 8.47941 17.2238C8.47941 17.9848 8.33673 18.6778 8.05137 19.3029C7.766 19.9144 7.38551 20.4444 6.90991 20.8928C6.44789 21.3276 5.91113 21.6673 5.29963 21.9119C4.70173 22.1565 4.07664 22.2788 3.42438 22.2788C3.11184 22.2788 2.81288 22.2653 2.52752 22.2381C2.25574 22.1973 2.01114 22.1565 1.79372 22.1158C1.87525 22.9583 2.03832 23.6853 2.28292 24.2968C2.52752 24.9083 2.83327 25.4111 3.20016 25.8051C3.56706 26.1992 3.97472 26.4914 4.42316 26.6816C4.88517 26.8719 5.36078 26.967 5.84998 26.967C6.46148 26.967 7.02541 26.8175 7.54179 26.5186C8.05816 26.2196 8.53377 25.8323 8.96861 25.3567C9.40345 24.8675 9.79753 24.3104 10.1508 23.6853C10.5177 23.0602 10.8439 22.4283 11.1292 21.7896C11.4146 21.1374 11.666 20.5055 11.8834 19.894C12.1144 19.2689 12.3182 18.7186 12.4949 18.243L13.2898 18.4468C13.1132 18.8952 12.9026 19.4388 12.658 20.0775C12.427 20.7161 12.1552 21.3888 11.8426 22.0954C11.5301 22.7884 11.1632 23.4882 10.7419 24.1949C10.3207 24.8879 9.84509 25.513 9.31512 26.0701C8.78516 26.6137 8.18046 27.0621 7.50102 27.4154C6.83517 27.7551 6.08778 27.925 5.25887 27.925ZM5.76845 15.0224C5.26566 15.0224 4.76967 15.1855 4.28047 15.5116C3.80486 15.8242 3.37682 16.259 2.99633 16.8161C2.61584 17.3733 2.3033 18.0323 2.0587 18.7933C1.82769 19.5543 1.71219 20.3696 1.71219 21.2393C1.88884 21.3072 2.13344 21.3684 2.44598 21.4227C2.77212 21.4635 3.16619 21.4839 3.62821 21.4839C4.11741 21.4839 4.59981 21.382 5.07542 21.1782C5.56461 20.9607 5.99946 20.6686 6.37994 20.3017C6.77402 19.9212 7.08656 19.4728 7.31757 18.9564C7.56217 18.44 7.68447 17.8761 7.68447 17.2646C7.68447 16.9656 7.6437 16.6803 7.56217 16.4085C7.48064 16.1367 7.35834 15.8989 7.19527 15.6951C7.03221 15.4912 6.82837 15.3282 6.58378 15.2059C6.35277 15.0836 6.08099 15.0224 5.76845 15.0224Z" fill="#444444"/>
<path d="M19.5475 2.52752C19.5475 3.38361 19.4456 4.29406 19.2417 5.25887C19.0515 6.22367 18.7933 7.20207 18.4672 8.19405C18.1546 9.18603 17.7877 10.1848 17.3665 11.1904C16.9588 12.196 16.5444 13.1608 16.1231 14.0848C15.7019 15.0088 15.2874 15.8853 14.8797 16.7142C14.4721 17.5431 14.112 18.2837 13.7994 18.936C13.8538 20.0503 13.9489 21.0559 14.0848 21.9527C14.2207 22.8496 14.3905 23.6173 14.5944 24.256C14.7982 24.8811 15.0428 25.3635 15.3282 25.7032C15.6135 26.0429 15.9397 26.2128 16.3066 26.2128C16.7142 26.2128 17.1151 26.0226 17.5092 25.6421C17.9168 25.2616 18.3245 24.7248 18.7322 24.0318C19.1398 23.3388 19.5543 22.5031 19.9755 21.5247C20.3968 20.5463 20.8248 19.4524 21.2597 18.243L22.0546 18.4468C21.7285 19.3844 21.3616 20.3764 20.9539 21.4227C20.5463 22.4555 20.091 23.4067 19.5883 24.2764C19.0855 25.1461 18.5351 25.8663 17.9372 26.437C17.3529 27.0077 16.721 27.2931 16.0416 27.2931C15.3621 27.2931 14.7914 27.0825 14.3294 26.6612C13.8674 26.24 13.4869 25.6896 13.1879 25.0102C12.889 24.3172 12.658 23.5358 12.4949 22.6661C12.3318 21.7829 12.2095 20.886 12.128 19.9755C12.0465 19.0651 11.9989 18.1818 11.9853 17.3257C11.9717 16.456 11.9649 15.6883 11.9649 15.0224C11.9649 13.7858 12.0125 12.5561 12.1076 11.3331C12.2163 10.1101 12.3726 8.94143 12.5764 7.82715C12.7939 6.71287 13.052 5.68012 13.351 4.7289C13.65 3.7641 13.9965 2.93518 14.3905 2.24215C14.7982 1.53553 15.2398 0.985188 15.7155 0.591113C16.2046 0.197038 16.7346 0 17.3053 0C17.713 0 18.0595 0.067944 18.3449 0.203832C18.6302 0.33972 18.8613 0.523169 19.0379 0.754179C19.2146 0.985188 19.3437 1.25696 19.4252 1.56951C19.5067 1.86846 19.5475 2.1878 19.5475 2.52752ZM13.6771 14.2682C13.6771 14.7846 13.6771 15.2942 13.6771 15.797C13.6771 16.2862 13.6907 16.7618 13.7179 17.2238C14.0576 16.5444 14.4177 15.8038 14.7982 15.002C15.1787 14.1867 15.5524 13.351 15.9193 12.4949C16.2998 11.6252 16.6599 10.7487 16.9996 9.86547C17.3393 8.9822 17.6383 8.11931 17.8965 7.2768C18.1546 6.42071 18.3585 5.61218 18.5079 4.8512C18.671 4.07664 18.7525 3.37682 18.7525 2.75173C18.7525 2.5479 18.7322 2.33048 18.6914 2.09947C18.6642 1.86846 18.6031 1.65783 18.5079 1.46759C18.4264 1.26376 18.3041 1.10069 18.1411 0.978394C17.978 0.842506 17.7674 0.774562 17.5092 0.774562C16.9928 0.774562 16.4968 1.11428 16.0212 1.79372C15.5592 2.45957 15.1515 3.39041 14.7982 4.58622C14.4585 5.78204 14.1867 7.20886 13.9829 8.86669C13.779 10.5109 13.6771 12.3115 13.6771 14.2682Z" fill="#444444"/>
<path d="M28.3123 2.52752C28.3123 3.38361 28.2104 4.29406 28.0065 5.25887C27.8163 6.22367 27.5581 7.20207 27.232 8.19405C26.9194 9.18603 26.5525 10.1848 26.1313 11.1904C25.7236 12.196 25.3091 13.1608 24.8879 14.0848C24.4666 15.0088 24.0522 15.8853 23.6445 16.7142C23.2369 17.5431 22.8767 18.2837 22.5642 18.936C22.6186 20.0503 22.7137 21.0559 22.8496 21.9527C22.9855 22.8496 23.1553 23.6173 23.3592 24.256C23.563 24.8811 23.8076 25.3635 24.0929 25.7032C24.3783 26.0429 24.7044 26.2128 25.0713 26.2128C25.479 26.2128 25.8799 26.0226 26.274 25.6421C26.6816 25.2616 27.0893 24.7248 27.4969 24.0318C27.9046 23.3388 28.3191 22.5031 28.7403 21.5247C29.1616 20.5463 29.5896 19.4524 30.0245 18.243L30.8194 18.4468C30.4933 19.3844 30.1264 20.3764 29.7187 21.4227C29.311 22.4555 28.8558 23.4067 28.353 24.2764C27.8503 25.1461 27.2999 25.8663 26.702 26.437C26.1177 27.0077 25.4858 27.2931 24.8064 27.2931C24.1269 27.2931 23.5562 27.0825 23.0942 26.6612C22.6322 26.24 22.2517 25.6896 21.9527 25.0102C21.6538 24.3172 21.4227 23.5358 21.2597 22.6661C21.0966 21.7829 20.9743 20.886 20.8928 19.9755C20.8113 19.0651 20.7637 18.1818 20.7501 17.3257C20.7365 16.456 20.7297 15.6883 20.7297 15.0224C20.7297 13.7858 20.7773 12.5561 20.8724 11.3331C20.9811 10.1101 21.1374 8.94143 21.3412 7.82715C21.5586 6.71287 21.8168 5.68012 22.1158 4.7289C22.4147 3.7641 22.7612 2.93518 23.1553 2.24215C23.563 1.53553 24.0046 0.985188 24.4802 0.591113C24.9694 0.197038 25.4994 0 26.0701 0C26.4778 0 26.8243 0.067944 27.1097 0.203832C27.395 0.33972 27.626 0.523169 27.8027 0.754179C27.9793 0.985188 28.1084 1.25696 28.19 1.56951C28.2715 1.86846 28.3123 2.1878 28.3123 2.52752ZM22.4419 14.2682C22.4419 14.7846 22.4419 15.2942 22.4419 15.797C22.4419 16.2862 22.4555 16.7618 22.4827 17.2238C22.8224 16.5444 23.1825 15.8038 23.563 15.002C23.9435 14.1867 24.3172 13.351 24.6841 12.4949C25.0645 11.6252 25.4247 10.7487 25.7644 9.86547C26.1041 8.9822 26.403 8.11931 26.6612 7.2768C26.9194 6.42071 27.1233 5.61218 27.2727 4.8512C27.4358 4.07664 27.5173 3.37682 27.5173 2.75173C27.5173 2.5479 27.4969 2.33048 27.4562 2.09947C27.429 1.86846 27.3678 1.65783 27.2727 1.46759C27.1912 1.26376 27.0689 1.10069 26.9058 0.978394C26.7428 0.842506 26.5321 0.774562 26.274 0.774562C25.7576 0.774562 25.2616 1.11428 24.786 1.79372C24.324 2.45957 23.9163 3.39041 23.563 4.58622C23.2233 5.78204 22.9515 7.20886 22.7477 8.86669C22.5438 10.5109 22.4419 12.3115 22.4419 14.2682Z" fill="#444444"/>
<path d="M32.3685 26.0905C31.5124 26.0905 30.799 25.744 30.2283 25.051C29.6712 24.3579 29.3926 23.3116 29.3926 21.9119C29.3926 20.9879 29.576 19.8125 29.9429 18.3857C30.3234 16.9452 30.9757 15.3214 31.8997 13.5141L32.6539 13.7179C32.5724 14.0712 32.4365 14.5536 32.2462 15.1651C32.0696 15.7766 31.8861 16.4628 31.6959 17.2238C31.5192 17.9712 31.363 18.7593 31.2271 19.5883C31.0912 20.4036 31.0232 21.1917 31.0232 21.9527C31.0232 22.5914 31.0708 23.1146 31.1659 23.5222C31.261 23.9163 31.3833 24.2288 31.5328 24.4598C31.6959 24.6773 31.8793 24.8267 32.0832 24.9083C32.3006 24.9898 32.5316 25.0306 32.7762 25.0306C33.1703 25.0306 33.544 24.9083 33.8973 24.6637C34.2506 24.4191 34.5835 24.0997 34.896 23.7057C35.2222 23.298 35.5211 22.8496 35.7929 22.3604C36.0783 21.8576 36.3297 21.3548 36.5471 20.852C36.7781 20.3492 36.9819 19.8736 37.1586 19.4252C37.3352 18.9632 37.4779 18.5691 37.5866 18.243L38.3816 18.4468C38.2321 18.8545 38.0554 19.3301 37.8516 19.8736C37.6614 20.4036 37.4372 20.9539 37.179 21.5247C36.9344 22.0954 36.6558 22.6525 36.3433 23.1961C36.0307 23.7396 35.6774 24.2288 35.2833 24.6637C34.8893 25.0849 34.4476 25.4314 33.9584 25.7032C33.4828 25.9614 32.9528 26.0905 32.3685 26.0905ZM35.6706 7.09336C35.6706 7.56896 35.4872 7.93586 35.1203 8.19405C34.7534 8.45224 34.2913 8.58133 33.7342 8.58133C33.4488 8.58133 33.1771 8.54056 32.9189 8.45903C32.6743 8.36391 32.4569 8.2484 32.2666 8.11252C32.09 7.96304 31.9473 7.79318 31.8386 7.60294C31.7434 7.3991 31.6959 7.18848 31.6959 6.97106C31.6959 6.50904 31.8725 6.13534 32.2258 5.84998C32.5927 5.56462 33.014 5.42193 33.4896 5.42193C33.8293 5.42193 34.1351 5.47629 34.4068 5.585C34.6786 5.68012 34.9096 5.80921 35.0999 5.97228C35.2901 6.13534 35.4328 6.31879 35.5279 6.52263C35.623 6.71287 35.6706 6.90311 35.6706 7.09336ZM34.5699 7.09336C34.5699 6.95747 34.5088 6.83517 34.3865 6.72646C34.2778 6.60416 34.1079 6.54301 33.8769 6.54301C33.4556 6.54301 33.245 6.69928 33.245 7.01182C33.245 7.1613 33.3062 7.29039 33.4285 7.3991C33.5643 7.49423 33.741 7.54179 33.9584 7.54179C34.1623 7.54179 34.3117 7.50102 34.4068 7.41949C34.5156 7.32437 34.5699 7.21565 34.5699 7.09336Z" fill="#444444"/>
<path d="M42.0709 27.925C41.3779 27.925 40.7121 27.8027 40.0734 27.5581C39.4347 27.3135 38.8708 26.9466 38.3816 26.4574C37.906 25.9546 37.5255 25.3295 37.2401 24.5821C36.9548 23.8348 36.8121 22.9583 36.8121 21.9527C36.8121 20.7297 36.9887 19.6426 37.342 18.6914C37.6953 17.7266 38.1438 16.9181 38.6873 16.2658C39.2445 15.5999 39.8628 15.0972 40.5422 14.7574C41.2216 14.4041 41.8875 14.2275 42.5397 14.2275C43.3823 14.2275 44.0481 14.506 44.5373 15.0632C45.0401 15.6203 45.2915 16.3405 45.2915 17.2238C45.2915 17.9848 45.1488 18.6778 44.8634 19.3029C44.5781 19.9144 44.1976 20.4444 43.722 20.8928C43.26 21.3276 42.7232 21.6673 42.1117 21.9119C41.5138 22.1565 40.8887 22.2788 40.2364 22.2788C39.9239 22.2788 39.625 22.2653 39.3396 22.2381C39.0678 22.1973 38.8232 22.1565 38.6058 22.1158C38.6873 22.9583 38.8504 23.6853 39.095 24.2968C39.3396 24.9083 39.6453 25.4111 40.0122 25.8051C40.3791 26.1992 40.7868 26.4914 41.2352 26.6816C41.6972 26.8719 42.1729 26.967 42.662 26.967C43.2735 26.967 43.8375 26.8175 44.3539 26.5186C44.8702 26.2196 45.3458 25.8323 45.7807 25.3567C46.2155 24.8675 46.6096 24.3104 46.9629 23.6853C47.3298 23.0602 47.6559 22.4283 47.9413 21.7896C48.2267 21.1374 48.4781 20.5055 48.6955 19.894C48.9265 19.2689 49.1303 18.7186 49.307 18.243L50.1019 18.4468C49.9253 18.8952 49.7146 19.4388 49.47 20.0775C49.239 20.7161 48.9673 21.3888 48.6547 22.0954C48.3422 22.7884 47.9753 23.4882 47.554 24.1949C47.1328 24.8879 46.6572 25.513 46.1272 26.0701C45.5972 26.6137 44.9925 27.0621 44.3131 27.4154C43.6472 27.7551 42.8998 27.925 42.0709 27.925ZM42.5805 15.0224C42.0777 15.0224 41.5817 15.1855 41.0925 15.5116C40.6169 15.8242 40.1889 16.259 39.8084 16.8161C39.4279 17.3733 39.1154 18.0323 38.8708 18.7933C38.6398 19.5543 38.5243 20.3696 38.5243 21.2393C38.7009 21.3072 38.9455 21.3684 39.2581 21.4227C39.5842 21.4635 39.9783 21.4839 40.4403 21.4839C40.9295 21.4839 41.4119 21.382 41.8875 21.1782C42.3767 20.9607 42.8115 20.6686 43.192 20.3017C43.5861 19.9212 43.8986 19.4728 44.1296 18.9564C44.3742 18.44 44.4965 17.8761 44.4965 17.2646C44.4965 16.9656 44.4558 16.6803 44.3742 16.4085C44.2927 16.1367 44.1704 15.8989 44.0073 15.6951C43.8443 15.4912 43.6404 15.3282 43.3958 15.2059C43.1648 15.0836 42.8931 15.0224 42.5805 15.0224Z" fill="#444444"/>
<path d="M49.307 18.243C49.7418 16.9656 50.2106 16.0144 50.7134 15.3893C51.2162 14.7506 51.8073 14.4313 52.4868 14.4313C52.7857 14.4313 53.0643 14.4993 53.3225 14.6351C53.5942 14.771 53.832 14.9952 54.0359 15.3078C54.2397 15.6067 54.396 16.0008 54.5047 16.49C54.627 16.9792 54.6881 17.5771 54.6881 18.2837C55.2996 16.721 55.9179 15.6067 56.543 14.9409C57.1681 14.275 57.8475 13.9421 58.5813 13.9421C58.8531 13.9421 59.1249 13.9965 59.3967 14.1052C59.682 14.2139 59.9334 14.4109 60.1508 14.6963C60.3818 14.9681 60.5721 15.3418 60.7216 15.8174C60.871 16.293 60.9526 16.8909 60.9662 17.6111C61.3331 16.8909 61.7883 16.3066 62.3318 15.8581C62.889 15.4097 63.5005 15.1855 64.1663 15.1855C64.4925 15.1855 64.8186 15.2466 65.1447 15.3689C65.4709 15.4776 65.7562 15.6679 66.0008 15.9397C66.259 16.2114 66.4696 16.5715 66.6327 17.02C66.7958 17.4548 66.8773 17.9984 66.8773 18.6506C66.8773 18.8409 66.8637 19.0923 66.8365 19.4048C66.8093 19.7038 66.7754 20.0367 66.7346 20.4036C66.6938 20.7705 66.6531 21.1442 66.6123 21.5247C66.5715 21.9052 66.5308 22.2653 66.49 22.605C66.4492 22.9311 66.4153 23.2233 66.3881 23.4815C66.3609 23.7261 66.3473 23.8959 66.3473 23.991C66.3473 24.7928 66.4425 25.3771 66.6327 25.744C66.8229 26.1109 67.1695 26.2943 67.6722 26.2943C68.0527 26.2943 68.44 26.0701 68.8341 25.6217C69.2282 25.1597 69.629 24.555 70.0367 23.8076C70.4444 23.0602 70.8588 22.2041 71.2801 21.2393C71.7013 20.2745 72.1294 19.2757 72.5642 18.243L73.3592 18.4468C72.9651 19.3844 72.5574 20.3764 72.1362 21.4227C71.7149 22.4691 71.2529 23.4339 70.7501 24.3172C70.2609 25.2004 69.7309 25.9342 69.1602 26.5186C68.5895 27.0893 67.9576 27.3746 67.2646 27.3746C66.4628 27.3746 65.8513 27.1368 65.4301 26.6612C65.0088 26.1856 64.7982 25.3907 64.7982 24.2764C64.7982 23.7872 64.8322 23.2708 64.9001 22.7273C64.9681 22.1701 65.0428 21.6198 65.1243 21.0762C65.2195 20.5191 65.301 19.9823 65.3689 19.466C65.4369 18.936 65.4709 18.4536 65.4709 18.0188C65.4709 17.7742 65.4505 17.5296 65.4097 17.285C65.3689 17.0404 65.2942 16.8229 65.1855 16.6327C65.0904 16.4289 64.9545 16.2726 64.7778 16.1639C64.6148 16.0416 64.3973 15.9804 64.1256 15.9804C63.7858 15.9804 63.4597 16.1435 63.1472 16.4696C62.8346 16.7958 62.5357 17.2306 62.2503 17.7742C61.9649 18.3177 61.7 18.9428 61.4554 19.6494C61.2108 20.3424 60.9933 21.0626 60.8031 21.81C60.6129 22.5438 60.443 23.2776 60.2935 24.0114C60.144 24.7316 60.0285 25.3907 59.947 25.9886L58.4998 25.744C58.4998 25.744 58.5338 25.5809 58.6017 25.2548C58.6697 24.9151 58.7444 24.487 58.8259 23.9706C58.9211 23.4407 59.023 22.8496 59.1317 22.1973C59.2404 21.5315 59.3355 20.8656 59.417 20.1998C59.5122 19.5339 59.5869 18.8952 59.6413 18.2837C59.7092 17.6722 59.7432 17.1559 59.7432 16.7346C59.7432 16.1639 59.6345 15.6951 59.417 15.3282C59.1996 14.9613 58.8803 14.7778 58.459 14.7778C58.065 14.7778 57.6845 15.002 57.3176 15.4505C56.9643 15.8989 56.6313 16.49 56.3188 17.2238C56.0063 17.944 55.7141 18.7661 55.4423 19.6902C55.1705 20.6006 54.9191 21.5247 54.6881 22.4623C54.4571 23.3863 54.2533 24.2764 54.0766 25.1325C53.9 25.9886 53.7437 26.7224 53.6078 27.3339L52.2422 27.0077C52.4324 26.0701 52.6023 25.1189 52.7517 24.1541C52.8876 23.3252 53.0099 22.4147 53.1186 21.4227C53.2273 20.4308 53.2817 19.466 53.2817 18.5283C53.2817 17.9304 53.2681 17.4344 53.2409 17.0404C53.2138 16.6327 53.1594 16.3066 53.0779 16.062C52.9963 15.8174 52.8808 15.6475 52.7313 15.5524C52.5955 15.4437 52.4188 15.3893 52.2014 15.3893C51.8617 15.3893 51.5152 15.6339 51.1618 16.1231C50.8085 16.6123 50.4552 17.3869 50.1019 18.4468L49.307 18.243Z" fill="#444444"/>
<path d="M88.2797 18.4468C87.7225 19.9552 87.2129 21.2189 86.7509 22.2381C86.3025 23.2572 85.8608 24.0794 85.426 24.7044C85.0048 25.3295 84.5835 25.778 84.1623 26.0497C83.741 26.3215 83.279 26.4574 82.7762 26.4574C82.1647 26.4574 81.6415 26.2468 81.2067 25.8255C80.7718 25.3907 80.5001 24.7248 80.3914 23.828C79.9565 24.7656 79.3926 25.5334 78.6996 26.1313C78.0065 26.7156 77.1368 27.0077 76.0905 27.0077C75.5334 27.0077 74.9966 26.9058 74.4802 26.702C73.9774 26.4982 73.529 26.1856 73.1349 25.7644C72.7409 25.3295 72.4215 24.786 72.1769 24.1337C71.9459 23.4815 71.8304 22.7137 71.8304 21.8304C71.8304 20.9336 71.9391 20.091 72.1565 19.3029C72.3876 18.5147 72.6865 17.7945 73.0534 17.1423C73.4203 16.4764 73.8416 15.8853 74.3172 15.3689C74.8064 14.8526 75.3091 14.4177 75.8255 14.0644C76.3419 13.7111 76.8583 13.4393 77.3746 13.2491C77.891 13.0588 78.3666 12.9637 78.8015 12.9637C79.182 12.9637 79.5489 13.0113 79.9022 13.1064C80.2555 13.2015 80.568 13.3578 80.8398 13.5752C81.1252 13.779 81.3494 14.0576 81.5124 14.4109C81.6891 14.7642 81.7774 15.2059 81.7774 15.7358C81.7774 16.3609 81.6551 16.9045 81.4105 17.3665C81.1795 17.8285 80.8941 18.2158 80.5544 18.5283C80.2283 18.8409 79.8886 19.0923 79.5353 19.2825C79.1955 19.4728 78.9238 19.6086 78.7199 19.6902L78.4753 18.8952C78.5161 18.8952 78.6656 18.8409 78.9238 18.7322C79.1955 18.6235 79.4741 18.4468 79.7595 18.2022C80.0584 17.944 80.3302 17.6179 80.5748 17.2238C80.8194 16.8297 80.9417 16.3473 80.9417 15.7766C80.9417 15.1243 80.7583 14.6283 80.3914 14.2886C80.0245 13.9353 79.5556 13.7587 78.9849 13.7587C78.5501 13.7587 78.0405 13.9149 77.4562 14.2275C76.8719 14.54 76.3079 15.0292 75.7644 15.6951C75.2344 16.3609 74.7792 17.2034 74.3987 18.2226C74.0318 19.2417 73.8484 20.4579 73.8484 21.8712C73.8484 23.2708 74.0929 24.3375 74.5821 25.0713C75.0849 25.8051 75.7576 26.172 76.6001 26.172C77.0213 26.172 77.4222 26.0565 77.8027 25.8255C78.1968 25.5809 78.5569 25.2616 78.883 24.8675C79.2091 24.4734 79.5013 24.0182 79.7595 23.5018C80.0177 22.9719 80.2419 22.4283 80.4321 21.8712C80.4321 21.4363 80.4797 20.9268 80.5748 20.3424C80.6835 19.7445 80.8466 19.1398 81.064 18.5283L82.3074 18.936C82.2394 19.1127 82.1715 19.3437 82.1035 19.629C82.0356 19.9144 81.9677 20.2269 81.8997 20.5667C81.8454 20.9064 81.7978 21.2597 81.757 21.6266C81.7163 21.9799 81.6959 22.3264 81.6959 22.6661C81.6959 23.7261 81.7978 24.4598 82.0016 24.8675C82.2191 25.2616 82.586 25.4586 83.1023 25.4586C83.4013 25.4586 83.6934 25.3499 83.9788 25.1325C84.2778 24.9151 84.5971 24.5346 84.9368 23.991C85.2765 23.4475 85.6502 22.7137 86.0579 21.7896C86.4656 20.852 86.9412 19.6698 87.4847 18.243L88.2797 18.4468Z" fill="#444444"/>
<path d="M91.969 27.925C91.276 27.925 90.6101 27.8027 89.9715 27.5581C89.3328 27.3135 88.7689 26.9466 88.2797 26.4574C87.804 25.9546 87.4236 25.3295 87.1382 24.5821C86.8528 23.8348 86.7102 22.9583 86.7102 21.9527C86.7102 20.7297 86.8868 19.6426 87.2401 18.6914C87.5934 17.7266 88.0419 16.9181 88.5854 16.2658C89.1425 15.5999 89.7608 15.0972 90.4403 14.7574C91.1197 14.4041 91.7856 14.2275 92.4378 14.2275C93.2803 14.2275 93.9462 14.506 94.4354 15.0632C94.9382 15.6203 95.1896 16.3405 95.1896 17.2238C95.1896 17.9848 95.0469 18.6778 94.7615 19.3029C94.4762 19.9144 94.0957 20.4444 93.6201 20.8928C93.158 21.3276 92.6213 21.6673 92.0098 21.9119C91.4119 22.1565 90.7868 22.2788 90.1345 22.2788C89.822 22.2788 89.523 22.2653 89.2377 22.2381C88.9659 22.1973 88.7213 22.1565 88.5039 22.1158C88.5854 22.9583 88.7485 23.6853 88.9931 24.2968C89.2377 24.9083 89.5434 25.4111 89.9103 25.8051C90.2772 26.1992 90.6849 26.4914 91.1333 26.6816C91.5953 26.8719 92.0709 26.967 92.5601 26.967C93.1716 26.967 93.7356 26.8175 94.2519 26.5186C94.7683 26.2196 95.2439 25.8323 95.6788 25.3567C96.1136 24.8675 96.5077 24.3104 96.861 23.6853C97.2279 23.0602 97.554 22.4283 97.8394 21.7896C98.1247 21.1374 98.3761 20.5055 98.5936 19.894C98.8246 19.2689 99.0284 18.7186 99.2051 18.243L100 18.4468C99.8233 18.8952 99.6127 19.4388 99.3681 20.0775C99.1371 20.7161 98.8653 21.3888 98.5528 22.0954C98.2402 22.7884 97.8734 23.4882 97.4521 24.1949C97.0308 24.8879 96.5552 25.513 96.0253 26.0701C95.4953 26.6137 94.8906 27.0621 94.2112 27.4154C93.5453 27.7551 92.7979 27.925 91.969 27.925ZM92.4786 15.0224C91.9758 15.0224 91.4798 15.1855 90.9906 15.5116C90.515 15.8242 90.087 16.259 89.7065 16.8161C89.326 17.3733 89.0135 18.0323 88.7689 18.7933C88.5378 19.5543 88.4223 20.3696 88.4223 21.2393C88.599 21.3072 88.8436 21.3684 89.1561 21.4227C89.4823 21.4635 89.8763 21.4839 90.3384 21.4839C90.8276 21.4839 91.31 21.382 91.7856 21.1782C92.2748 20.9607 92.7096 20.6686 93.0901 20.3017C93.4842 19.9212 93.7967 19.4728 94.0277 18.9564C94.2723 18.44 94.3946 17.8761 94.3946 17.2646C94.3946 16.9656 94.3539 16.6803 94.2723 16.4085C94.1908 16.1367 94.0685 15.8989 93.9054 15.6951C93.7424 15.4912 93.5385 15.3282 93.2939 15.2059C93.0629 15.0836 92.7911 15.0224 92.4786 15.0224Z" fill="#444444"/>
</svg>
