<?xml version="1.0" ?><svg fill="#444" data-name="Layer 1" id="Layer_1" viewBox="0 0 512 512" xmlns="http://www.w3.org/2000/svg"><title/><path d="M397.35,360.83V162c0-77.94-63.41-141.35-141.35-141.35S114.65,84.08,114.65,162v198.8a43.22,43.22,0,0,0-11.06,28.95v95.47a6.1,6.1,0,0,0,12.19,0V440.59h31.4v44.65a6.1,6.1,0,0,0,12.19,0V434.5a6.1,6.1,0,0,0-6.1-6.1H115.78V389.77a31,31,0,0,1,19.64-29l58.39-23.26,17.38,20.1a59.23,59.23,0,0,0,89.63,0l17.36-20.1,58.4,23.27a31,31,0,0,1,19.64,29V428.4h-37.5a6.1,6.1,0,0,0-6.09,6.1v50.74a6.1,6.1,0,0,0,12.19,0V440.59h31.4v44.65a6.1,6.1,0,0,0,12.19,0V389.77A43.18,43.18,0,0,0,397.35,360.83ZM291.59,349.68a47,47,0,0,1-71.18,0L205.8,332.76l30-12a6.09,6.09,0,0,0,3.84-5.66V282.92a6.09,6.09,0,0,0-4.81-6c-45.44-9.83-78.43-50.74-78.43-97.27V165A558.28,558.28,0,0,0,217,158.7v7.93a6.09,6.09,0,0,0,12.18,0v-10c40.68-7.5,84.34-21,124.12-44.11a98.65,98.65,0,0,1,2.3,19.92v47.26c0,46.53-33,87.44-78.44,97.27a6.09,6.09,0,0,0-4.8,6v32.22a6.09,6.09,0,0,0,3.84,5.66l30,12Zm89.49-.19L284.51,311v-23.3c48.53-12.79,83.24-57.44,83.24-108V132.43a112.46,112.46,0,0,0-4.24-30.14.19.19,0,0,1,0-.07c-.06-.23-.08-.46-.15-.69a5.56,5.56,0,0,0-.39-.77,7,7,0,0,0-.29-.76c-.07-.11-.18-.17-.25-.27a6,6,0,0,0-.91-1,6.63,6.63,0,0,0-.77-.65,5.94,5.94,0,0,0-1.26-.57,5.24,5.24,0,0,0-.85-.27,5.82,5.82,0,0,0-1.32-.06,6.07,6.07,0,0,0-1.12.11c-.12,0-.25,0-.37,0a5.59,5.59,0,0,0-.73.38,5.48,5.48,0,0,0-.8.3c-67,41.57-148,52.92-204.18,55.11a6.78,6.78,0,0,0-1,.25,5.88,5.88,0,0,0-1.22.29,6.14,6.14,0,0,0-1,.67,5.47,5.47,0,0,0-.91.67,5.68,5.68,0,0,0-.68,1,6.25,6.25,0,0,0-.59.95,6,6,0,0,0-.25,1.27,5.6,5.6,0,0,0-.2,1v20.46c0,50.58,34.71,95.23,83.24,108V311l-96.57,38.47a42.71,42.71,0,0,0-4.08,2V162C126.84,90.8,184.79,32.85,256,32.85S385.16,90.8,385.16,162V351.47A41.52,41.52,0,0,0,381.08,349.49Z"/><path d="M291.81,172.72a6.09,6.09,0,0,0,6.1-6.09V151.82a6.1,6.1,0,0,0-12.19,0v14.81A6.09,6.09,0,0,0,291.81,172.72Z"/><path d="M306.87,213.53a6.15,6.15,0,0,0-8.52-1.28c-22.37,16.57-58.09,16.57-80.53,0a6.09,6.09,0,1,0-7.23,9.81,81.77,81.77,0,0,0,95,0A6.1,6.1,0,0,0,306.87,213.53Z"/></svg>